<svg width="1066" height="1348" viewBox="0 0 1066 1348" fill="none" xmlns="http://www.w3.org/2000/svg">
<path fill-rule="evenodd" clip-rule="evenodd" d="M1019.84 734.014C1013.27 722.042 1005.47 710.783 996.576 700.419C984.771 686.604 971.276 674.326 956.409 663.876C939.612 651.948 917.432 639.451 893.926 628.713C871.3 618.213 847.712 609.925 823.492 603.964C798.172 598.021 772.374 594.337 746.403 592.955C740.317 592.576 734.042 592.576 727.847 592.414C717.921 593.847 708.481 595.552 703.233 596.85C688.194 603.585 683.569 608.832 669.206 609.671C644.105 611.159 631.5 600.528 617.732 600.069C606.372 599.69 596.364 607.291 586.058 612.403C568.531 621.085 549.299 624.791 531.609 622.952L529.337 623.79C508.212 632.608 485.735 644.699 460.607 660.739C433.828 677.861 412.92 693.955 396.718 709.94C379.442 727.037 364.631 746.455 352.71 767.635C351.817 769.258 351.087 770.8 350.275 772.369C370.724 781.836 391.687 789.626 420.169 800.229C447.786 813.428 467.477 828.089 481.164 843.29C490.901 837.881 500.801 831.74 510.376 825.709C518.058 820.894 526.01 815.89 533.909 811.292C551.585 800.864 570.117 791.96 589.304 784.676C606.642 778.238 621.573 774.776 642.59 772.288C665.311 769.637 691.656 768.501 714.891 769.069C738.402 769.708 761.826 772.196 784.947 776.507C807.261 780.688 829.301 786.216 850.946 793.061C857.573 795.117 864.47 797.307 871.503 799.58C889.412 805.556 907.518 810.923 925.79 815.674C954.38 822.733 979.427 825.357 988.894 826.168C991.734 826.412 994.115 826.547 996.251 826.655C999.211 826.404 1002.19 826.368 1005.15 826.547C1007.46 826.389 1009.72 825.793 1011.8 824.789C1016.27 822.544 1021.19 817.919 1025.27 812.157C1029.63 806.017 1032.17 799.796 1033.25 792.547C1034.45 782.975 1033.93 773.268 1031.74 763.875C1029.21 753.408 1025.2 743.354 1019.84 734.014Z" fill="#F46B17"/>
<path fill-rule="evenodd" clip-rule="evenodd" d="M298.667 1151.56C292.183 1148.99 285.532 1146.86 278.759 1145.18C249.763 1138.23 150.657 1117.86 92.7454 1147.37C91.9604 1147.77 91.104 1148.02 90.2252 1148.09C89.3463 1148.16 88.4622 1148.05 87.6233 1147.78C86.7844 1147.51 86.0071 1147.08 85.3359 1146.51C84.6646 1145.93 84.1125 1145.24 83.7112 1144.45C83.3098 1143.67 83.0669 1142.81 82.9965 1141.93C82.9261 1141.05 83.0295 1140.17 83.3007 1139.33C83.572 1138.49 84.0058 1137.71 84.5775 1137.04C85.1491 1136.37 85.8474 1135.82 86.6324 1135.42C96.0921 1130.75 106.058 1127.2 116.332 1124.81C91.1225 1090.68 69.5647 1056.43 58.9616 1018.89C34.9965 1047.4 19.3083 1081.91 14.7911 1116.86C9.5978 1157.06 19.3353 1194.22 42.9759 1224.38C67.5361 1255.76 105.134 1282.34 151.684 1301.33C157.121 1303.58 162.666 1305.66 168.265 1307.64C179.301 1302.14 201.238 1288.97 242.054 1257.51C294.61 1217 299.208 1170.44 298.667 1151.56Z" fill="#343738"/>
<path fill-rule="evenodd" clip-rule="evenodd" d="M127.584 1122.38C130.289 1106.96 141.271 1068.09 185.062 1038.34C207.594 1023.03 220.307 1010.53 227.583 1001.01C204.024 989.705 183.981 975.802 167.102 954.704C162.558 949.024 156.824 945.237 160.448 935.553C165.182 934.012 166.615 933.444 171.43 936.419C182.358 945.291 216.791 968.066 236.996 979.507C186.415 938.123 154.335 872.422 171.376 777.941C184.278 706.289 208.162 662.984 218.982 646.214L218.9 646.16L210.326 638.126C193.907 654.761 155.552 717.19 141.162 740.073C69.1048 854.597 37.4579 1006.91 122.959 1123.19C124.473 1122.89 126.042 1122.65 127.584 1122.38ZM480.569 1313.02C501.288 1300.74 500.991 1298.11 512.676 1280.99C545.811 1232.57 562.608 1114.43 549.733 1073.8C544.593 1057.73 532.151 1041.45 514.84 1049.24L515.489 1082.24C496.257 1083.05 501.343 1072.12 497.583 1054.87C489.712 1018.73 440.51 993.87 421.792 1019C432.639 1023.27 446.082 1041.99 438.319 1059.84C423.442 1056.06 388.225 994.249 343.784 1064.03C331.666 1092.25 335.669 1126.9 339.619 1157.08C365.315 1172.82 389.875 1194.27 404.914 1218.94C418.574 1241.28 422.847 1263.44 417.627 1284.7C413.407 1301.9 400.397 1314.32 383.546 1323.16C398.26 1325.38 412.866 1326.95 427.094 1327C444.621 1327.06 462.176 1323.97 480.542 1313.02H480.569ZM930.118 1302.31C956.355 1292.05 980.05 1267.14 995.332 1243.72C1001.17 1234.79 1005.12 1228.84 1010.75 1217.94C1030.82 1179.07 1047.46 1132.2 1042.1 1087.13C1039.75 1067.55 1029.25 1041.85 1008.45 1044.13C1005.83 1064.85 1006.4 1072.42 995.495 1075.72C988.922 1071.12 991.194 1074.91 989.598 1065.14C987.705 1053.81 987.894 1040.34 976.182 1031.95C960.467 1020.68 946.131 1025.35 926.926 1026.41C930.984 1032.14 934.284 1035.34 936.42 1040.26C938.26 1044.48 939.098 1049.83 935.961 1052.59C921.976 1059.19 922.734 1050.7 914.241 1041.23C893.251 1017.89 873.857 1035.34 858.169 1051.65C824.141 1087 831.147 1174.28 751.57 1249.83C759.82 1255.13 771.315 1257.35 780.512 1262C809.806 1276.8 840.641 1297.25 861.874 1304.42C884.433 1312.07 907.641 1311.07 930.118 1302.31Z" fill="#343738"/>
<path fill-rule="evenodd" clip-rule="evenodd" d="M562.04 847.239C573.995 850.106 586.032 850.025 595.499 846.022C594.958 834.742 594.417 838.096 585.274 833.417L578.837 829.306C605.209 819.189 628.525 806.963 658.955 797.74C696.715 786.298 733.474 815.538 772.181 814.375C767.393 822.435 765.716 824.978 771.45 832.957C786.543 838.502 799.527 819.866 814.458 815.889C821.03 814.104 858.953 821.056 866.256 828.305C833.527 836.636 850.108 858.437 870.448 846.698C876.886 842.965 874.857 842.911 878.347 840.585L886.867 838.61C890.924 839.07 893.44 840.287 898.39 840.855C898.254 865.091 889.355 861.412 898.498 886.297C925.844 881.591 913.212 860.276 932.282 857.896C934.542 860.985 935.984 864.595 936.474 868.391C941.458 859.476 947.821 851.406 955.327 844.48C943.605 842.613 931.964 840.267 920.434 837.447C901.661 832.572 883.059 827.06 864.66 820.92C857.913 818.726 851.151 816.581 844.373 814.483C820.679 807.18 801.096 802.257 780.917 798.524C758.088 794.359 736.287 792.033 714.323 791.464C691.235 790.946 668.138 791.976 645.187 794.548C626.118 796.793 612.62 799.904 597.095 805.665C579.111 812.51 561.738 820.861 545.161 830.631C537.587 835.067 529.825 839.963 522.305 844.696C513.271 850.349 503.966 856.057 494.607 861.385C496.609 864.766 498.313 868.12 499.855 871.474C513.568 864.929 528.418 858.004 538.94 851.864C552.113 844.182 546.514 843.533 562.04 847.239ZM640.427 1101.69C664.933 1103.15 682.163 1102.01 706.29 1100.55C722.844 1099.58 797.606 1085.56 814.863 1083.89C819.801 1072.78 825.475 1062.02 831.85 1051.67C834.014 1048.35 836.124 1045.8 837.747 1042.85C838.916 1040.75 839.738 1038.46 840.181 1036.09C840.668 1033.47 840.83 1030.28 840.506 1026.22C833.748 1027.91 826.829 1028.87 819.867 1029.09C814.782 1029.2 809.886 1028.87 800.582 1029.36C799.431 1029.43 798.29 1029.61 797.174 1029.9C789.248 1031.85 781.431 1038.36 766.554 1038.61C753.301 1038.82 734.772 1031.74 729.876 1032.06C726.901 1032.25 714.837 1038.07 702.368 1040.39C694.846 1041.74 687.189 1042.15 679.566 1041.64C672.831 1040.99 668.909 1039.04 657.44 1036.88C653.41 1036.12 647.703 1038.77 641.617 1041.66L638.398 1043.18C636.521 1044.07 634.617 1044.91 632.691 1045.69C630.905 1046.4 629.174 1047.05 627.443 1047.45C620.381 1049.32 613.108 1050.26 605.804 1050.27C600.1 1050.22 594.436 1049.31 589.007 1047.56C586.718 1046.82 584.47 1045.97 582.272 1044.99C577.295 1042.75 573.129 1040.26 569.072 1038.55C565.213 1036.67 560.87 1036.02 556.63 1036.69C567.098 1057.24 572.67 1076.88 574.888 1096.74L574.996 1097.28C591.279 1095.52 622.737 1100.63 640.427 1101.69Z" fill="#D8DACF"/>
<path d="M573.671 1012.99C579.865 1016.13 585.761 1019.84 592.767 1022.3C602.613 1025.76 614.73 1026.71 633.475 1019.46C645.674 1014.75 646.459 1008.29 661.389 1012.34C669.071 1014.43 675.401 1015.7 680.919 1016.32C683.705 1016.62 686.274 1016.78 688.736 1016.78C700.962 1016.83 710.023 1013.43 724.494 1009.4C727.441 1008.48 730.53 1008.11 733.609 1008.31C735.186 1008.45 736.745 1008.75 738.262 1009.21C739.749 1009.64 741.237 1010.18 742.914 1010.69C750.434 1012.99 761.388 1015.1 791.007 1007.39C797.606 1005.66 802.908 1006.12 808.534 1006.61C811.347 1006.85 814.241 1007.1 817.46 1007.07C820.625 1007.02 824.114 1006.74 828.09 1005.91C834.528 1004.55 838.315 1003.31 841.074 1001.85C843.86 1000.36 845.564 998.738 847.836 996.628C849.351 995.222 851.082 993.599 853.57 991.706C854.531 990.951 855.586 990.323 856.708 989.839C857.637 989.444 858.623 989.198 859.629 989.109C863.47 988.784 867.067 990.867 871.774 992.923C874.127 993.951 876.751 995.006 879.807 995.709C905.639 1001.66 922.49 984.132 928.847 968.66C922.625 956.894 919.948 942.396 920.245 927.167C912.022 943.288 898.552 963.44 883.324 968.39C877.779 964.386 876.562 955.731 863.93 963.142C859.467 965.793 826.873 1001.28 806.695 984.159C811.618 973.448 820.49 964.982 814.296 954.757C808.588 954.649 805.559 958.869 801.042 964.711L788.139 979.182C775.318 994.14 759.143 989.812 751.191 982.834C754.572 973.096 773.993 958.841 766.528 941.341C740.02 939.907 765.77 991.138 670.153 990.948C668.909 986.783 670.559 985.322 670.64 985.16C673.21 978.479 679.837 977.451 674.914 966.821C665.149 966.226 666.691 970.337 652.95 981.373C646.188 986.783 642.239 990.732 631.176 993.761C582.948 1007.07 585.734 978.425 585.599 978.208C575.943 979.48 570.803 988.487 556.873 992.896C544.756 996.683 529.284 995.438 519.979 989.163C522.17 980.967 541.077 965.712 532.827 957.624C524.496 949.483 524.226 961.79 511.973 966.929C505.129 958.625 501.099 954.541 498.232 953.486C492.66 965.333 485.708 974.665 479.731 980.075C477.943 981.63 476.084 983.102 474.158 984.484C472.265 985.89 470.291 987.351 468.208 988.811C466.801 989.893 465.368 990.921 463.961 991.976C464.232 992.138 464.556 992.165 464.854 992.219C465.178 992.274 465.449 992.382 465.584 992.76C465.719 993.085 466.044 993.247 466.368 993.301C465.449 993.031 466.098 993.301 467.207 993.68C467.883 993.951 468.695 994.221 469.479 994.492C470.223 994.756 470.972 995.009 471.724 995.249C471.778 995.249 471.67 995.222 471.643 995.195C471.11 994.95 470.569 994.725 470.02 994.519L466.45 993.328H466.396L467.234 993.464L470.047 994.546L470.669 994.735L473.915 995.844C480.758 998.17 485.005 999.658 489.63 1002.34C492.876 1004.15 496.311 1006.53 501.099 1010.15C503.398 1011.91 509.863 1018.11 512.568 1019.38C523.414 1024.49 536.587 1019.38 548.732 1015.32C551.437 1014.4 554.087 1013.53 556.657 1012.86C560.498 1011.83 564.149 1011.23 567.476 1011.4C569.694 1011.53 571.777 1012.02 573.671 1012.99Z" fill="#D8DACF"/>
<path d="M637.235 76.7582C653.897 94.6103 738.099 108.405 796.281 238.185C817.812 218.574 838.666 76.4336 816.108 33.1558C795.659 -6.06481 662.417 61.1241 637.235 76.7582ZM596.878 419.627C619.383 462.959 663.824 457.766 663.824 457.766C663.824 457.766 656.872 492.929 720.436 500.503C773.127 506.805 819.867 490.549 836.34 478.052C835.177 467.855 833.446 460.525 828.523 444.566C811.131 388.251 819.326 379.135 808.507 329.393C784.082 245.028 742.562 176.027 674.291 124.634C640.264 96.7742 580.108 77.5697 516.598 73.2419C535.802 95.1513 585.382 156.66 593.795 217.249C604.344 292.661 574.401 376.295 596.878 419.627Z" fill="#343738"/>
<path fill-rule="evenodd" clip-rule="evenodd" d="M630.093 924.572C628.389 919.541 628.686 909.046 624.412 903.664C605.451 906.585 614.918 937.555 629.011 942.614C648.702 943.506 657.52 937.961 664.39 926.574C678.456 903.231 669.746 874.478 659.116 901.04C653.841 914.212 651.542 932.2 630.093 924.572ZM842.56 891.248C831.93 885.595 830.442 894.71 816.593 884.838C807.992 878.698 806.531 870.799 791.546 870.177C790.816 889.842 797.308 894.494 811.454 901.446C824.654 907.937 842.56 912.319 842.56 891.248ZM704.368 859.195C731.606 869.826 754.787 790.979 715.404 837.989C710.103 844.265 703.665 848.457 704.368 859.195Z" fill="#D8DACF"/>
<path fill-rule="evenodd" clip-rule="evenodd" d="M920.705 1262.09C952.514 1316.18 1002.72 1214.86 957.112 1179.32C931.633 1159.49 904.286 1183.64 892.628 1196.06C881.971 1207.42 874.506 1225.89 873.965 1244.8C872.531 1294.92 901.825 1265.25 920.705 1262.09ZM412.515 1118.73C410.405 1104.12 398.774 1084.62 382.572 1089.05C370.833 1092.27 363.205 1128.22 373.835 1148.89C389.794 1179.99 418.114 1157.7 412.515 1118.73ZM886.245 1083.21C858.655 1095.63 864.336 1160.44 891.087 1151.1C896.145 1149.35 901.609 1142.04 903.989 1136.61C914.727 1112.32 905.476 1074.58 886.245 1083.21ZM471.643 1136.71C488.575 1120.97 483.328 1079.64 467.802 1075.21C446.461 1069.07 438.4 1104.66 444.459 1126.41C448.516 1141.02 458.47 1148.94 471.643 1136.71ZM959.601 1080.75C930.47 1088.03 928.928 1149.16 955.246 1141.8C980.455 1134.77 984.323 1074.61 959.601 1080.75ZM510.864 1116.73C504.724 1135.17 508.889 1158.27 519.79 1161.09C534.937 1164.9 546.189 1138.15 543.457 1116.08C539.481 1084.21 518.681 1093.27 510.864 1116.73ZM1020.6 1164.33C1032.63 1156.62 1035.91 1139.28 1033.98 1125.06C1031.28 1104.66 1020.41 1101.09 1006.48 1116.81C999.038 1125.19 995.116 1138.47 998.362 1153.78C1001.36 1167.79 1006.12 1173.61 1020.6 1164.33ZM469.1 1177.34C438.833 1164.28 415.382 1188.08 403.643 1217.1C404.021 1217.73 404.481 1218.32 404.86 1218.97C418.519 1241.31 422.766 1263.44 417.573 1284.75C417.167 1286.35 416.626 1287.86 416.085 1289.4C421.657 1289.38 428.338 1287.35 436.372 1282.51C465.882 1264.79 450.924 1277.18 475.808 1285C491.361 1289.86 500.477 1271.74 503.723 1257.76C511.946 1222.54 491.821 1187.16 469.1 1177.34Z" fill="#F68788"/>
<mask id="mask0_470_71" style="mask-type:luminance" maskUnits="userSpaceOnUse" x="424" y="702" width="610" height="142">
<path d="M424.551 702.962H1033.9V843.29H424.551V702.962Z" fill="white"/>
</mask>
<g mask="url(#mask0_470_71)">
<path opacity="0.5" fill-rule="evenodd" clip-rule="evenodd" d="M928.63 721.733C912.784 721.013 896.974 719.641 881.241 717.621C859.494 715.133 828.144 711.184 799.419 708.073C770.666 704.963 744.51 702.663 718.543 702.988C692.576 703.313 666.799 706.288 643.24 711.481C619.653 716.675 598.258 724.113 577.241 732.904C556.197 741.695 535.532 751.838 506.806 765.498C481.976 777.291 451.14 791.735 424.551 802.392L426.796 803.555C431.588 806.001 436.306 808.59 440.943 811.318C442.16 812.048 443.377 812.779 444.54 813.536C458.077 821.684 470.397 831.701 481.137 843.29C490.902 837.88 500.774 831.74 510.35 825.708C518.059 820.893 525.984 815.889 533.882 811.291C551.559 800.863 570.091 791.959 589.278 784.675C606.616 778.237 621.574 774.775 642.564 772.314C665.284 769.636 691.657 768.473 714.892 769.068C738.403 769.724 761.826 772.22 784.948 776.533C806.046 780.401 826.386 785.487 850.946 793.087C857.573 795.116 864.471 797.334 871.503 799.579C889.383 805.34 907.911 811.291 925.763 815.7C954.354 822.733 979.428 825.356 988.868 826.168C991.708 826.411 994.088 826.546 996.252 826.655C997.658 826.546 999.011 826.655 1000.42 826.6C1001.85 826.6 1003.34 826.465 1004.75 826.573H1005.15C1007.45 826.403 1009.7 825.797 1011.78 824.788C1016.27 822.543 1021.19 817.918 1025.28 812.156C1029.63 806.016 1032.17 799.795 1033.23 792.546C1034.43 782.975 1033.92 773.266 1031.71 763.875C1029.18 753.407 1025.17 743.353 1019.81 734.013C1016.18 727.44 1012.17 721.082 1007.8 714.971C997.383 716.813 986.921 718.401 976.425 719.731C956.68 722.111 942.019 722.247 928.63 721.733Z" fill="#E43B1D"/>
</g>
<path fill-rule="evenodd" clip-rule="evenodd" d="M463.041 741.317C481.299 745.293 489.278 758.141 484.058 776.182C478.459 795.549 470.804 810.047 461.039 824.816C468.721 830.767 475.348 836.825 480.92 842.993C501.044 816.268 522.71 785.081 526.362 756.166C531.907 711.779 454.196 698.634 410.431 697.363C405.563 701.555 400.964 705.721 396.745 709.859C388.985 717.541 381.721 725.708 374.998 734.311C391.578 735.041 406.915 735.799 419.276 736.556C441.673 737.936 454.467 739.423 463.041 741.317ZM653.626 709.372C658.143 723.789 636.207 755.084 621.249 775.668C627.876 774.37 634.773 773.234 642.617 772.287C650.407 771.395 658.63 770.719 666.988 770.178C680.648 749.242 705.695 709.859 703.504 703.476C694.091 676.156 576.483 643.698 549.597 637.369C539.318 634.934 528.012 632.392 516.11 629.741C505.438 634.788 494.98 640.275 484.761 646.186C501.585 649.108 517.138 651.921 529.986 654.409C552.788 658.845 645.917 684.704 653.626 709.372ZM665.338 609.671C684.373 617.291 703.023 625.84 721.221 635.286C739.722 644.861 822.734 684.109 822.869 710.373C822.951 725.899 784.352 755.761 761.307 772.828C775.053 774.589 788.709 776.99 802.231 780.023C830.362 765.065 861.414 748.998 866.445 715.864C873.153 671.775 763.795 618.921 729.795 602.692C724.221 600.034 718.631 597.41 713.025 594.821C709.743 595.4 706.478 596.067 703.233 596.823C688.194 603.585 683.569 608.805 669.233 609.671C667.881 609.752 666.636 609.671 665.338 609.671Z" fill="#FCD9B2"/>
<path fill-rule="evenodd" clip-rule="evenodd" d="M838.828 608.021C850.675 618.273 861.928 628.173 872.098 637.342C895.089 658.116 935.5 694.956 950.837 721.95C973.152 761.117 945.806 773.722 914.591 792.547C908.073 796.497 900.337 801.041 891.871 805.937C903.231 809.453 914.646 812.888 925.79 815.62C931.172 816.972 936.339 818.081 941.397 819.109C949.917 814.403 957.68 809.967 964.063 805.964C997.712 784.974 1012.99 755.734 990.165 717.758C988.151 714.419 985.938 711.203 983.538 708.129C966.687 686.49 941.288 662.714 917.783 640.507C910.074 636.423 902.149 632.392 893.98 628.66C876.13 620.431 857.696 613.533 838.828 608.021Z" fill="#FCD9B2"/>
<path fill-rule="evenodd" clip-rule="evenodd" d="M272.348 179.625C275.621 137.672 217.574 101.048 188.416 79.0035C180.355 74.4594 154.794 58.9064 144.056 67.048C122.146 84.0616 158.256 260.716 190.417 270.833C212.381 226.689 225.472 180.869 272.348 179.625ZM787.435 46.6263C782.6 49.3446 777.906 52.3057 773.37 55.4982L719.138 90.4992C713.457 94.4483 701.664 106.187 697.877 113.22C718.759 127.718 742.318 148.762 764.688 181.302C770.26 188.713 774.614 195.367 776.859 200.479C777.725 201.913 778.591 203.319 779.429 204.807C794.252 193.311 802.231 145.11 804.53 128.151C807.506 106.512 814.051 54.9032 799.31 38.4846C793.305 42.8124 795.442 42.2173 787.435 46.6263Z" fill="#F68788"/>
<path d="M330.773 532.312C342.08 534.097 350.329 537.803 360.094 539.94C385.79 545.539 386.98 513.27 312.759 509.645C292.608 508.699 259.852 508.158 264.342 530.284C274.62 533.881 311.542 529.283 330.773 532.312ZM376.161 562.417C352.818 558.09 264.937 577.565 284.222 596.959C288.55 601.286 341.566 584.083 360.905 579.593C373.835 576.591 378.46 576.077 376.161 562.417ZM225.473 180.896C221.199 189.011 224.553 201.913 225.878 212.624C227.339 241.81 238.727 232.64 239.944 229.854C244.353 219.657 246.76 170.617 225.473 180.896ZM460.39 448.461C470.993 456.955 482.76 473.833 494.796 470.371C507.834 433.558 457.145 394.445 423.036 391.118C376.404 386.52 330.665 427.228 342.431 461.012C363.367 466.854 392.12 393.85 460.39 448.461ZM669.098 461.012C675.941 465.556 679.539 457.847 685.327 452.897C689.817 449.056 692.089 446.135 696.904 441.537C705.749 433.044 709.157 429.554 722.681 423.685C757.222 408.7 774.344 442.267 780.214 445.324C804.612 435.072 780.268 395.176 754.815 387.764C744.374 384.708 734.664 383.382 723.466 385.708C701.719 390.28 677.483 417.518 671.072 436.344C667.827 445.811 662.038 456.305 669.098 461.012ZM408.295 296.691C418.519 299.396 437.778 310.026 444.215 305.78C459.687 295.609 403.832 269.778 390.524 276.838C371.914 286.737 399.342 294.284 408.295 296.691ZM495.473 294.338C498.935 299.072 502.884 306.591 509.321 300.126C516.895 292.553 489.63 253.089 479.189 250.384C464.799 246.678 463.312 258.12 471.832 267.83C477.539 274.376 486.871 282.572 495.473 294.338ZM722.384 291.39C727.929 288.387 731.175 282.599 736.801 277.595C753.436 262.745 746.809 246.57 732.311 256.578C726.144 260.825 721.491 268.371 717.136 273.997C708.886 284.682 706.209 300.154 722.384 291.39ZM680.377 288.144C681.811 284.033 681.594 276.243 685.706 265.369C696.904 235.561 678.781 236.427 672.317 255.74C668.638 266.803 667.042 280.57 668.07 286.602C669.558 294.933 676.699 298.747 680.377 288.144Z" fill="#040708"/>
<path d="M1010.75 1217.97C1005.12 1228.87 1001.2 1234.82 995.359 1243.75C980.049 1267.17 956.382 1292.11 930.171 1302.33C907.667 1311.07 884.432 1312.1 861.874 1304.44C840.667 1297.28 809.805 1276.8 780.538 1262.03C771.315 1257.38 759.846 1255.13 751.569 1249.86C831.146 1174.31 824.141 1087.03 858.195 1051.67C873.883 1035.36 893.277 1017.92 914.267 1041.29C922.76 1050.75 922.003 1059.22 935.96 1052.65C939.098 1049.86 938.259 1044.53 936.447 1040.31C934.283 1035.34 930.983 1032.17 926.926 1026.44C946.13 1025.35 960.466 1020.7 976.208 1031.98C987.92 1040.37 987.731 1053.84 989.597 1065.17C991.22 1074.91 988.948 1071.12 995.521 1075.72C1006.42 1072.47 1005.85 1064.85 1008.45 1044.13C1029.28 1041.88 1039.77 1067.58 1042.1 1087.16C1047.48 1132.25 1030.85 1179.1 1010.75 1217.97ZM701.313 1256.57C648.73 1282.53 599.664 1282.99 534.287 1285.62C540.779 1262.46 556.413 1245.26 567.773 1187.35C578.755 1131.49 582.244 1086.86 556.629 1036.69C574.59 1033.44 583.462 1058.49 627.443 1047.45C638.046 1044.8 650.326 1035.55 657.413 1036.85C675.806 1040.31 674.805 1043.26 697.012 1041.18C711.213 1039.83 726.468 1032.25 729.903 1032.06C734.772 1031.74 753.327 1038.83 766.527 1038.61C783.568 1038.34 791.358 1029.84 800.608 1029.33C819.218 1028.38 820.083 1030.68 840.505 1026.22C841.858 1042.45 835.42 1044.67 829.686 1055.3C781.972 1134.98 800.04 1202.47 701.313 1256.57ZM512.648 1281.02C500.963 1298.11 501.234 1300.76 480.514 1313.04C462.121 1324 444.567 1327.11 427.066 1327.03C412.477 1326.8 397.923 1325.51 383.518 1323.19C400.369 1314.34 413.38 1301.93 417.599 1284.72C422.793 1263.44 418.519 1241.31 404.886 1218.97C389.847 1194.3 365.26 1172.82 339.564 1157.08C335.642 1126.92 331.639 1092.27 343.756 1064.03C388.197 994.249 423.415 1056.08 438.291 1059.87C446.054 1042.02 432.611 1023.3 421.765 1019.03C440.455 993.87 489.657 1018.75 497.555 1054.89C501.315 1072.15 496.203 1083.02 515.461 1082.24L514.785 1049.24C532.096 1041.45 544.566 1057.73 549.678 1073.85C562.58 1114.43 545.756 1232.6 512.621 1281.05L512.648 1281.02ZM282.031 1329.41C239.349 1328.19 193.041 1318.21 151.711 1301.33C105.133 1282.34 67.5354 1255.73 42.9752 1224.38C19.3888 1194.17 9.59715 1157 14.7905 1116.81C19.3347 1081.83 35.0229 1047.32 58.961 1018.81C69.5911 1056.35 91.1489 1090.6 116.358 1124.76C105.809 1127.33 95.7742 1130.71 86.6588 1135.36C85.2354 1136.26 84.1981 1137.65 83.7506 1139.27C83.3032 1140.89 83.4779 1142.62 84.2406 1144.12C85.0033 1145.62 86.2987 1146.78 87.8723 1147.37C89.4459 1147.96 91.1839 1147.94 92.7447 1147.32C150.683 1117.83 249.789 1138.17 278.785 1145.1C315.842 1153.97 368.641 1185.32 393.418 1225.95C405.13 1245.15 408.863 1263.84 404.535 1281.53C399.314 1302.93 374.592 1314.45 354.765 1320.35C329.664 1327.81 300.749 1329.9 282.004 1329.38L282.031 1329.41ZM141.108 740.073C155.498 717.189 193.853 654.788 210.271 638.153L218.846 646.187C240.62 655.708 272.916 689.654 302.751 681.593C305.645 667.907 296.556 665.202 286.062 659.44C219.901 623.141 181.546 590.737 149.926 520.735C132.912 483.056 125.095 431.285 130.64 383.328C137.105 327.364 157.797 305.617 152.658 291.524C149.412 282.68 144.813 273.456 141.135 263.773C121.065 211.352 100.372 120.658 117.954 61.8542C125.879 35.4277 140.053 34.3187 169.455 38.4842C233.1 47.5184 291.093 71.2942 339.645 106.485C353.927 116.844 366.613 130.017 377.973 135.237C382.95 137.536 389.198 134.02 388.982 128.529C388.441 115.654 371.346 104.835 365.72 96.5306C463.636 51.3594 612.269 73.945 674.264 124.58C742.508 175.973 784.028 245.001 808.48 329.366C819.299 379.135 811.076 388.223 828.496 444.539C835.447 467.043 836.069 472.318 837.611 492.767C828.063 494.795 788.599 504.83 804.612 519.193C814.052 527.659 828.414 507.779 840.911 514.108L841.993 543.104C831.39 539.317 804.152 530.716 801.149 543.753C797.633 559.144 826.927 559.36 837.124 561.795L830.768 582.758L828.739 582.217C804.071 576.266 777.59 572.479 747.755 570.64C736.839 569.992 725.908 569.631 714.972 569.558C717.569 560.551 721.41 547.838 718.759 538.749C714.594 524.738 706.587 528.877 703.558 542.266C700.691 554.897 698.229 566.961 687.058 576.022C648.947 606.777 602.315 558.819 633.88 536.477C641.725 530.932 670.883 505.101 652.679 494.281C642.482 488.222 592.685 492.604 580.026 494.2C524.414 501.395 586.383 533.015 597.013 543.212C615.947 561.389 585.842 586.328 574.752 591.792C557.468 600.312 526.227 605.424 509.565 591.684C491.442 576.726 496.203 561.687 491.713 545.295C484.842 520.329 464.907 536.802 472.914 571.045C477.431 590.331 487.52 603.828 500.639 612.349C484.247 620.355 467.071 630.066 448.543 641.886C420.412 659.873 398.314 676.914 381.002 694.009C362.232 712.58 346.137 733.673 333.18 756.68C332.098 758.655 331.179 760.548 330.205 762.442C312.872 753.122 296.018 742.939 279.705 731.931C267.533 725.52 247.247 728.442 284.682 757.005C317.141 781.782 345.542 792.601 384.059 808.776C429.988 828.089 479.757 852.622 482.408 911.94C468.207 908.207 412.812 880.59 420.25 914.834C429.988 918.891 440.942 919.649 453.141 922.867C466.314 926.357 470.506 930.468 480.109 934.634C477.81 951.187 460.228 971.609 446.758 974.936C436.128 977.533 389.82 943.641 391.146 969.202C391.633 978.344 407.375 979.453 420.521 986.459C401.992 1009.83 294.149 1004.34 248.437 985.485C234.453 979.724 184.873 947.428 171.402 936.419C166.561 933.47 165.127 934.039 160.393 935.58C156.796 945.264 162.503 949.051 167.074 954.731C184.927 977.019 206.214 991.328 231.531 1003.01C253.711 1013.21 290.362 1027.19 346.894 1024.81C341.214 1038.23 304.509 1058.95 316.518 1144.64C305.431 1139.29 293.832 1135.08 281.896 1132.06C257.092 1126.11 182.979 1110.88 122.904 1123.22C37.4302 1006.93 69.0772 854.624 141.108 740.073ZM816.161 33.1556C838.72 76.4335 817.893 218.574 796.335 238.184C738.153 108.432 653.951 94.6372 637.289 76.7851C662.471 61.151 795.713 -6.01088 816.161 33.1826V33.1556ZM893.953 628.74C917.432 639.451 939.611 651.921 956.436 663.876C971.304 674.325 984.799 686.602 996.603 700.419C1005.75 711.158 1013.35 722.139 1019.86 734.041C1025.84 745.022 1029.63 754.489 1031.74 763.875C1033.96 773.721 1034.5 784.162 1033.25 792.547C1032.17 799.796 1029.66 806.017 1025.3 812.157C1021.19 817.946 1016.27 822.544 1011.78 824.789C1009.7 825.802 1007.45 826.408 1005.15 826.574C1002.19 826.381 999.212 826.408 996.251 826.655C993.796 826.55 991.342 826.388 988.894 826.168C979.427 825.357 954.38 822.733 925.79 815.701C907.517 810.943 889.411 805.566 871.503 799.58C864.47 797.335 857.573 795.117 850.946 793.088C826.386 785.487 806.045 780.375 784.947 776.507C761.826 772.196 738.402 769.709 714.891 769.069C690.745 768.509 666.589 769.594 642.59 772.315C621.573 774.749 606.615 778.265 589.304 784.676C571.777 791.167 552.626 800.364 533.909 811.292C526.01 815.89 518.058 820.894 510.376 825.709C500.801 831.74 490.901 837.881 481.164 843.29C467.477 828.143 447.813 813.429 420.169 800.229C391.687 789.626 370.751 781.836 350.275 772.369C351.087 770.8 351.817 769.231 352.709 767.635C364.63 746.446 379.441 727.019 396.718 709.913C412.92 693.955 433.828 677.861 460.607 660.739C485.735 644.699 508.212 632.608 529.337 623.79C530.068 623.466 530.879 623.249 531.609 622.925C549.299 624.818 568.531 621.085 586.058 612.376C596.364 607.264 606.399 599.663 617.732 600.069C631.527 600.528 644.132 611.159 669.233 609.671C683.569 608.832 688.194 603.585 703.233 596.85C708.508 595.552 717.921 593.847 727.847 592.387C734.069 592.576 740.317 592.576 746.43 592.955C774.912 594.686 800.122 598.283 823.519 603.964C846.726 609.563 869.772 617.677 893.953 628.74ZM1032.14 927.844C1024.08 949.321 1005.18 979.751 975.153 975.856C943.696 971.798 938.475 940.043 945.833 907.964C959.438 908.45 979.725 920.244 990.815 914.185C992.951 898.415 965.335 893.195 952.135 891.139C976.371 817.513 1061.68 849.187 1032.14 927.844ZM928.819 968.715C922.436 984.187 905.557 1001.74 879.78 995.764C867.5 992.95 862.279 985.079 853.516 991.787C843.67 999.361 845.185 1002.42 828.063 1005.99C812.131 1009.31 804.152 1004.01 790.979 1007.45C738.315 1021.19 744.618 1003.88 724.439 1009.48C701.286 1015.91 691.981 1020.78 661.362 1012.43C646.404 1008.37 645.647 1014.81 633.448 1019.51C601.368 1031.9 588.52 1020.65 573.643 1013.05C558.442 1005.31 531.799 1028.52 512.513 1019.43C509.808 1018.16 503.344 1011.99 501.044 1010.23C488.332 1000.55 484.923 999.686 470.615 994.817L469.965 994.6C476.349 997.062 463.366 992.437 466.314 993.383C465.989 993.302 465.692 993.167 465.529 992.815C465.259 992.112 464.42 992.382 463.907 992.058C469.506 987.784 475.808 983.673 479.676 980.156C497.744 963.819 524.982 912.129 494.58 861.359C503.966 856.057 513.27 850.323 522.305 844.643C529.824 839.936 537.587 835.04 545.188 830.604C562.797 820.326 580.757 811.697 597.067 805.639C612.62 799.877 626.09 796.767 645.214 794.549C666.582 792.033 692.414 790.87 714.323 791.438C736.314 792.006 758.088 794.332 780.917 798.525C801.095 802.23 820.679 807.126 844.373 814.456C850.892 816.485 857.708 818.649 864.66 820.894C882.945 826.736 901.824 832.795 920.434 837.394C933.039 840.531 944.94 842.803 955.327 844.453C922.436 873.991 910.264 933.633 928.819 968.715ZM1049.54 1043.37C1040.61 1031.25 1022.49 1017.56 1002.31 1025.57C979.671 1002.8 970.339 1000.47 928.359 1005.66C933.228 997.008 936.285 997.441 942.83 990.029C963.928 997.927 976.641 1008.31 1002.99 995.06C1070.23 961.249 1073.15 868.743 1032.69 837.15C1037.23 833.12 1040.96 828.765 1043.53 825.087C1049.89 816.106 1053.78 806.558 1055.38 795.874C1057 783.558 1056.39 771.051 1053.57 758.953C1050.58 746.461 1045.84 734.457 1039.48 723.302C1032.18 709.978 1023.51 697.45 1013.62 685.921C1000.61 670.688 985.744 657.148 969.365 645.619C951.188 632.716 928.332 619.841 903.258 608.373C886.789 600.819 869.859 594.314 852.569 588.898L857.979 566.447C868.744 567.691 885.758 573.696 894.738 568.449C904.205 551.868 873.64 548.784 860.656 547.513L863.118 506.67C871.773 505.317 882.16 503.018 891.519 501.043C901.202 498.988 907.883 497.392 908.154 490.549C908.938 469.667 872.585 484.327 858.79 485.22C850.351 428.58 841.831 452.221 835.204 369.127C831.092 317.599 808.398 267.911 813.375 256.01C827.711 221.874 837.909 186.549 843.399 143.568C847.457 111.597 848.62 41.9735 832.309 19.1985C809.021 -13.4222 762.903 2.75289 723.98 15.1412C687.734 26.718 654.059 40.026 624.603 57.6887C599.258 72.8901 606.21 64.3968 570.181 59.0412C505.616 49.493 440.455 48.952 378.622 68.2377C341.187 79.8686 350.356 84.8456 330.503 72.0245C291.336 46.8152 219.549 24.9869 172.16 17.4674C118.441 8.94704 101.022 25.5008 92.7988 73.3499C85.658 115.005 90.094 160.717 99.2905 200.262C104.808 223.741 114.816 259.093 123.959 281.03C128.53 291.984 132.966 294.96 128.368 305.644C81.1138 415.624 114.357 551.381 193.961 622.438C190.85 631.175 164.586 662.713 157.039 673.533C84.6031 777.183 63.2617 833.066 53.9029 937.636H53.7947C53.2807 943.749 52.7668 949.889 52.3881 956.137C51.3603 970.23 52.1177 983.727 54.1463 996.818C54.1548 999.558 53.8001 1002.29 53.0914 1004.93C24.9608 1036.26 6.62179 1075.42 1.48254 1115.05C-4.19768 1158.87 6.5136 1199.55 32.4262 1232.6C58.42 1265.79 97.911 1293.84 146.626 1313.72C189.444 1331.19 237.401 1341.5 281.653 1342.77C298.846 1343.12 316.034 1341.85 332.991 1338.98C387.278 1348.69 441.023 1351.59 473.292 1340.2C500.936 1330.46 508.591 1316.8 517.382 1310.96C527.931 1303.93 570.019 1309.01 586.816 1307.31C608.244 1305.23 629.551 1302.04 650.651 1297.76C732.31 1280.42 708.724 1257.84 759.413 1278.56C806.045 1297.76 849.08 1333.74 900.093 1331.03C1010.05 1325.24 1103.96 1117.48 1049.54 1043.37Z" fill="#040708"/>
<path d="M466.395 993.41L470.019 994.6L467.233 993.545L466.395 993.41Z" fill="#040708"/>
</svg>
