<svg width="890" height="319" viewBox="0 0 890 319" fill="none" xmlns="http://www.w3.org/2000/svg">
<g clip-path="url(#clip0_397_23)">
<path d="M463.205 198.872V131.95C463.205 122.604 470.782 115.028 480.13 115.028H563.327C572.671 115.028 580.248 122.604 580.248 131.95V198.872C580.248 208.217 572.671 215.793 563.327 215.793H480.13C470.782 215.793 463.205 208.217 463.205 198.872Z" stroke="white" stroke-width="21.1517"/>
<path d="M161.621 198.872V131.95C161.621 122.604 169.197 115.028 178.543 115.028H261.739C271.084 115.028 278.661 122.604 278.661 131.95V198.872C278.661 208.217 271.084 215.793 261.739 215.793H178.543C169.197 215.793 161.621 208.217 161.621 198.872Z" stroke="white" stroke-width="21.1517"/>
<path d="M127.616 215.793H27.4975C18.1521 215.793 10.5762 208.217 10.5762 198.872V131.95C10.5762 122.604 18.1522 115.028 27.4975 115.028H110.694C120.039 115.028 127.616 122.604 127.616 131.95V215.793ZM127.616 215.793L127.616 269.509C127.616 278.855 120.04 286.431 110.695 286.431H42.3639C24.8084 286.431 10.5769 272.199 10.5769 254.644" stroke="white" stroke-width="21.1517"/>
<path d="M878.464 215.793H782.397C773.053 215.793 765.477 208.217 765.477 198.872V165.411M765.477 165.411V131.95C765.477 122.604 773.053 115.028 782.397 115.028H861.543C870.892 115.028 878.464 122.604 878.464 131.95V140.219V148.489C878.464 157.835 870.892 165.411 861.543 165.411H765.477Z" stroke="white" stroke-width="21.1517"/>
<path d="M731.47 114.881V198.874C731.47 208.219 723.894 215.795 714.55 215.795H631.175C621.826 215.795 614.254 208.219 614.254 198.874V131.802C614.254 122.456 621.826 114.881 631.175 114.881H731.47ZM731.47 114.881V0" stroke="white" stroke-width="21.1517"/>
<path d="M418.084 0.046875C454.687 0.046875 484.361 29.7193 484.361 66.3223V221.888C484.361 245.221 472.299 265.737 454.076 277.546L483.283 306.755L478.163 311.875C469.906 320.135 456.512 320.135 448.252 311.875L424.255 287.878C422.224 288.065 420.165 288.163 418.084 288.163H323.784C287.181 288.163 257.509 258.49 257.508 221.888V66.3223C257.509 29.7194 287.181 0.0469709 323.784 0.046875H418.084ZM323.784 42.3504C310.545 42.3505 299.812 53.083 299.812 66.3223V221.888C299.812 235.127 310.545 245.859 323.784 245.859H382.237L363.498 227.121L368.618 222.001C376.878 213.74 390.271 213.74 398.531 222.001L422.061 245.53C433.408 243.636 442.056 233.772 442.056 221.888V66.3223C442.056 53.083 431.324 42.3504 418.084 42.3504H323.784Z" fill="#C9FD48"/>
<path d="M492.686 285.026L485.776 262.352H489.439L494.339 279.712H494.577L499.418 262.352H503.135L507.922 279.653H508.155L513.06 262.352H516.718L509.808 285.026H506.387L501.427 267.607H501.071L496.111 285.026H492.686ZM530.058 285.498C527.875 285.498 525.989 285.016 524.404 284.051C522.828 283.077 521.614 281.719 520.759 279.977C519.915 278.225 519.49 276.189 519.49 273.866C519.49 271.543 519.915 269.497 520.759 267.725C521.614 265.944 522.805 264.556 524.331 263.563C525.865 262.559 527.656 262.057 529.706 262.057C530.884 262.057 532.054 262.254 533.205 262.647C534.355 263.041 535.401 263.681 536.347 264.567C537.292 265.442 538.046 266.603 538.607 268.05C539.164 269.497 539.448 271.278 539.448 273.394V274.87H521.97V271.859H535.904C535.904 270.579 535.648 269.438 535.136 268.434C534.634 267.43 533.917 266.638 532.981 266.057C532.058 265.477 530.962 265.186 529.706 265.186C528.318 265.186 527.117 265.531 526.103 266.22C525.098 266.899 524.326 267.784 523.783 268.877C523.244 269.969 522.974 271.14 522.974 272.39V274.397C522.974 276.11 523.267 277.561 523.86 278.752C524.459 279.933 525.29 280.833 526.354 281.453C527.418 282.064 528.651 282.369 530.058 282.369C530.976 282.369 531.802 282.241 532.538 281.985C533.287 281.719 533.931 281.326 534.474 280.804C535.013 280.272 535.433 279.613 535.726 278.826L539.091 279.77C538.74 280.912 538.141 281.916 537.306 282.782C536.47 283.638 535.438 284.307 534.205 284.79C532.976 285.262 531.592 285.498 530.058 285.498ZM556.907 285.026V254.795H560.392V265.954H560.689C560.944 265.56 561.301 265.058 561.753 264.448C562.214 263.828 562.872 263.277 563.73 262.795C564.593 262.303 565.767 262.057 567.242 262.057C569.151 262.057 570.836 262.534 572.289 263.489C573.746 264.443 574.883 265.796 575.7 267.548C576.518 269.3 576.924 271.366 576.924 273.748C576.924 276.149 576.518 278.23 575.7 279.992C574.883 281.743 573.75 283.102 572.307 284.066C570.859 285.021 569.192 285.498 567.302 285.498C565.845 285.498 564.68 285.257 563.803 284.775C562.926 284.283 562.255 283.726 561.78 283.107C561.31 282.477 560.944 281.955 560.689 281.542H560.273V285.026H556.907ZM560.332 273.689C560.332 275.401 560.584 276.912 561.086 278.22C561.588 279.52 562.324 280.538 563.287 281.276C564.251 282.004 565.434 282.369 566.831 282.369C568.284 282.369 569.503 281.985 570.476 281.217C571.458 280.44 572.197 279.396 572.691 278.088C573.193 276.769 573.444 275.303 573.444 273.689C573.444 272.095 573.198 270.658 572.704 269.379C572.22 268.089 571.49 267.071 570.503 266.323C569.53 265.565 568.306 265.186 566.831 265.186C565.411 265.186 564.219 265.546 563.255 266.264C562.292 266.972 561.566 267.966 561.072 269.246C560.579 270.515 560.332 271.996 560.332 273.689ZM596.544 275.756V262.352H600.029V285.026H596.544V281.188H596.307C595.777 282.339 594.95 283.318 593.827 284.125C592.708 284.922 591.287 285.321 589.575 285.321C588.159 285.321 586.899 285.011 585.798 284.391C584.697 283.761 583.83 282.816 583.199 281.557C582.569 280.287 582.254 278.688 582.254 276.759V262.352H585.739V276.523C585.739 278.176 586.2 279.495 587.127 280.479C588.059 281.463 589.251 281.955 590.698 281.955C591.566 281.955 592.443 281.734 593.338 281.291C594.247 280.848 595.005 280.169 595.612 279.254C596.234 278.339 596.544 277.172 596.544 275.756ZM606.409 285.026V262.352H609.893V285.026H606.409ZM608.181 258.573C607.5 258.573 606.916 258.342 606.422 257.88C605.938 257.417 605.701 256.861 605.701 256.212C605.701 255.562 605.938 255.006 606.422 254.543C606.916 254.081 607.5 253.85 608.181 253.85C608.857 253.85 609.437 254.081 609.921 254.543C610.414 255.006 610.661 255.562 610.661 256.212C610.661 256.861 610.414 257.417 609.921 257.88C609.437 258.342 608.857 258.573 608.181 258.573ZM619.754 254.795V285.026H616.273V254.795H619.754ZM634.697 285.498C632.811 285.498 631.139 285.021 629.696 284.066C628.248 283.102 627.115 281.743 626.298 279.992C625.48 278.23 625.074 276.149 625.074 273.748C625.074 271.366 625.48 269.3 626.298 267.548C627.115 265.796 628.253 264.443 629.71 263.489C631.166 262.534 632.847 262.057 634.756 262.057C636.231 262.057 637.4 262.303 638.254 262.795C639.122 263.277 639.78 263.828 640.232 264.448C640.698 265.058 641.054 265.56 641.31 265.954H641.607V254.795H645.091V285.026H641.725V281.542H641.31C641.054 281.955 640.693 282.477 640.218 283.107C639.748 283.726 639.072 284.283 638.195 284.775C637.318 285.257 636.154 285.498 634.697 285.498ZM635.172 282.369C636.569 282.369 637.747 282.004 638.711 281.276C639.679 280.538 640.41 279.52 640.912 278.22C641.415 276.912 641.666 275.401 641.666 273.689C641.666 271.996 641.419 270.515 640.926 269.246C640.433 267.966 639.707 266.972 638.743 266.264C637.779 265.546 636.587 265.186 635.172 265.186C633.692 265.186 632.463 265.565 631.481 266.323C630.504 267.071 629.773 268.089 629.28 269.379C628.796 270.658 628.559 272.095 628.559 273.689C628.559 275.303 628.805 276.769 629.294 278.088C629.796 279.396 630.536 280.44 631.509 281.217C632.495 281.985 633.715 282.369 635.172 282.369ZM664.117 285.026V254.795H667.602V265.954H667.894C668.15 265.56 668.506 265.058 668.958 264.448C669.419 263.828 670.082 263.277 670.936 262.795C671.803 262.303 672.973 262.057 674.448 262.057C676.361 262.057 678.042 262.534 679.499 263.489C680.956 264.443 682.093 265.796 682.91 267.548C683.723 269.3 684.134 271.366 684.134 273.748C684.134 276.149 683.723 278.23 682.91 279.992C682.093 281.743 680.96 283.102 679.513 284.066C678.065 285.021 676.398 285.498 674.507 285.498C673.055 285.498 671.886 285.257 671.009 284.775C670.137 284.283 669.461 283.726 668.99 283.107C668.515 282.477 668.15 281.955 667.894 281.542H667.483V285.026H664.117ZM667.542 273.689C667.542 275.401 667.794 276.912 668.296 278.22C668.798 279.52 669.529 280.538 670.493 281.276C671.456 282.004 672.639 282.369 674.037 282.369C675.494 282.369 676.708 281.985 677.681 281.217C678.668 280.44 679.403 279.396 679.896 278.088C680.399 276.769 680.65 275.303 680.65 273.689C680.65 272.095 680.403 270.658 679.91 269.379C679.43 268.089 678.695 267.071 677.713 266.323C676.736 265.565 675.512 265.186 674.037 265.186C672.621 265.186 671.429 265.546 670.465 266.264C669.502 266.972 668.771 267.966 668.278 269.246C667.789 270.515 667.542 271.996 667.542 273.689ZM698.671 285.498C696.625 285.498 694.83 285.011 693.287 284.036C691.752 283.062 690.551 281.699 689.683 279.948C688.829 278.196 688.4 276.149 688.4 273.807C688.4 271.445 688.829 269.383 689.683 267.622C690.551 265.86 691.752 264.493 693.287 263.518C694.83 262.544 696.625 262.057 698.671 262.057C700.722 262.057 702.512 262.544 704.046 263.518C705.59 264.493 706.791 265.86 707.65 267.622C708.513 269.383 708.947 271.445 708.947 273.807C708.947 276.149 708.513 278.196 707.65 279.948C706.791 281.699 705.59 283.062 704.046 284.036C702.512 285.011 700.722 285.498 698.671 285.498ZM698.671 282.369C700.228 282.369 701.507 281.97 702.512 281.173C703.517 280.376 704.256 279.327 704.741 278.029C705.22 276.73 705.462 275.322 705.462 273.807C705.462 272.292 705.22 270.879 704.741 269.571C704.256 268.262 703.517 267.204 702.512 266.397C701.507 265.59 700.228 265.186 698.671 265.186C697.118 265.186 695.84 265.59 694.835 266.397C693.83 267.204 693.09 268.262 692.606 269.571C692.122 270.879 691.884 272.292 691.884 273.807C691.884 275.322 692.122 276.73 692.606 278.029C693.09 279.327 693.83 280.376 694.835 281.173C695.84 281.97 697.118 282.369 698.671 282.369ZM717.747 254.795V285.026H714.263V254.795H717.747ZM732.69 285.498C730.8 285.498 729.133 285.021 727.685 284.066C726.242 283.102 725.109 281.743 724.292 279.992C723.474 278.23 723.068 276.149 723.068 273.748C723.068 271.366 723.474 269.3 724.292 267.548C725.109 265.796 726.247 264.443 727.703 263.489C729.156 262.534 730.841 262.057 732.75 262.057C734.225 262.057 735.394 262.303 736.248 262.795C737.116 263.277 737.774 263.828 738.226 264.448C738.687 265.058 739.048 265.56 739.304 265.954H739.6V254.795H743.08V285.026H739.719V281.542H739.304C739.048 281.955 738.682 282.477 738.212 283.107C737.737 283.726 737.066 284.283 736.189 284.775C735.312 285.257 734.147 285.498 732.69 285.498ZM733.161 282.369C734.558 282.369 735.741 282.004 736.705 281.276C737.669 280.538 738.404 279.52 738.906 278.22C739.409 276.912 739.66 275.401 739.66 273.689C739.66 271.996 739.413 270.515 738.92 269.246C738.427 267.966 737.701 266.972 736.737 266.264C735.769 265.546 734.581 265.186 733.161 265.186C731.686 265.186 730.457 265.565 729.471 266.323C728.498 267.071 727.767 268.089 727.274 269.379C726.79 270.658 726.548 272.095 726.548 273.689C726.548 275.303 726.795 276.769 727.288 278.088C727.79 279.396 728.53 280.44 729.503 281.217C730.485 281.985 731.709 282.369 733.161 282.369ZM770.199 285.498C768.308 285.498 766.642 285.021 765.194 284.066C763.751 283.102 762.618 281.743 761.801 279.992C760.983 278.23 760.577 276.149 760.577 273.748C760.577 271.366 760.983 269.3 761.801 267.548C762.618 265.796 763.755 264.443 765.212 263.489C766.664 262.534 768.35 262.057 770.259 262.057C771.734 262.057 772.898 262.303 773.757 262.795C774.625 263.277 775.282 263.828 775.734 264.448C776.196 265.058 776.556 265.56 776.812 265.954H777.109V254.795H780.589V285.026H777.228V281.542H776.812C776.556 281.955 776.191 282.477 775.721 283.107C775.246 283.726 774.574 284.283 773.697 284.775C772.821 285.257 771.656 285.498 770.199 285.498ZM770.67 282.369C772.067 282.369 773.25 282.004 774.214 281.276C775.177 280.538 775.913 279.52 776.415 278.22C776.917 276.912 777.168 275.401 777.168 273.689C777.168 271.996 776.922 270.515 776.429 269.246C775.935 267.966 775.209 266.972 774.246 266.264C773.277 265.546 772.09 265.186 770.67 265.186C769.194 265.186 767.966 265.565 766.979 266.323C766.007 267.071 765.276 268.089 764.783 269.379C764.299 270.658 764.057 272.095 764.057 273.689C764.057 275.303 764.303 276.769 764.796 278.088C765.299 279.396 766.039 280.44 767.011 281.217C767.993 281.985 769.217 282.369 770.67 282.369ZM787.453 285.026V262.352H790.938V285.026H787.453ZM789.225 258.573C788.549 258.573 787.96 258.342 787.472 257.88C786.987 257.417 786.745 256.861 786.745 256.212C786.745 255.562 786.987 255.006 787.472 254.543C787.96 254.081 788.549 253.85 789.225 253.85C789.906 253.85 790.486 254.081 790.97 254.543C791.459 255.006 791.705 255.562 791.705 256.212C791.705 256.861 791.459 257.417 790.97 257.88C790.486 258.342 789.906 258.573 789.225 258.573ZM806.47 294C804.79 294 803.342 293.784 802.132 293.351C800.921 292.928 799.912 292.367 799.104 291.668C798.309 290.979 797.674 290.241 797.199 289.454L799.976 287.506C800.291 287.919 800.688 288.391 801.173 288.923C801.652 289.464 802.314 289.931 803.15 290.325C803.995 290.728 805.105 290.93 806.47 290.93C808.302 290.93 809.813 290.487 811.005 289.601C812.193 288.716 812.791 287.328 812.791 285.439V280.833H812.494C812.238 281.247 811.873 281.758 811.403 282.369C810.941 282.969 810.27 283.505 809.393 283.978C808.53 284.44 807.356 284.671 805.881 284.671C804.05 284.671 802.406 284.238 800.949 283.372C799.506 282.506 798.359 281.247 797.51 279.593C796.674 277.94 796.258 275.932 796.258 273.571C796.258 271.248 796.665 269.226 797.482 267.504C798.3 265.772 799.437 264.434 800.889 263.489C802.346 262.534 804.031 262.057 805.94 262.057C807.416 262.057 808.589 262.303 809.452 262.795C810.329 263.277 810.996 263.828 811.462 264.448C811.932 265.058 812.298 265.56 812.553 265.954H812.905V262.352H816.271V285.675C816.271 287.623 815.828 289.208 814.947 290.428C814.07 291.658 812.887 292.559 811.403 293.129C809.927 293.71 808.283 294 806.47 294ZM806.351 281.542C807.749 281.542 808.932 281.222 809.895 280.582C810.859 279.943 811.594 279.022 812.097 277.822C812.599 276.622 812.85 275.185 812.85 273.512C812.85 271.878 812.604 270.436 812.11 269.186C811.617 267.937 810.891 266.958 809.927 266.249C808.959 265.541 807.772 265.186 806.351 265.186C804.876 265.186 803.648 265.56 802.661 266.308C801.689 267.056 800.958 268.06 800.465 269.319C799.981 270.579 799.738 271.976 799.738 273.512C799.738 275.086 799.985 276.479 800.478 277.689C800.981 278.89 801.721 279.834 802.693 280.524C803.675 281.202 804.895 281.542 806.351 281.542ZM822.651 285.026V262.352H826.136V285.026H822.651ZM824.423 258.573C823.743 258.573 823.158 258.342 822.665 257.88C822.181 257.417 821.943 256.861 821.943 256.212C821.943 255.562 822.181 255.006 822.665 254.543C823.158 254.081 823.743 253.85 824.423 253.85C825.099 253.85 825.679 254.081 826.163 254.543C826.656 255.006 826.903 255.562 826.903 256.212C826.903 256.861 826.656 257.417 826.163 257.88C825.679 258.342 825.099 258.573 824.423 258.573ZM842.376 262.352V265.305H830.625V262.352H842.376ZM834.05 256.92H837.535V278.531C837.535 279.515 837.676 280.253 837.96 280.745C838.256 281.227 838.631 281.552 839.083 281.719C839.544 281.876 840.033 281.955 840.544 281.955C840.928 281.955 841.243 281.936 841.49 281.896C841.737 281.847 841.933 281.808 842.079 281.778L842.787 284.907C842.554 284.996 842.221 285.085 841.8 285.173C841.376 285.271 840.841 285.321 840.188 285.321C839.206 285.321 838.243 285.109 837.297 284.686C836.361 284.263 835.585 283.618 834.964 282.752C834.356 281.886 834.05 280.794 834.05 279.475V256.92ZM854.287 285.557C852.848 285.557 851.546 285.286 850.377 284.745C849.204 284.194 848.276 283.402 847.587 282.369C846.897 281.326 846.55 280.066 846.55 278.589C846.55 277.291 846.806 276.237 847.317 275.431C847.833 274.614 848.514 273.974 849.373 273.512C850.227 273.049 851.172 272.705 852.204 272.478C853.25 272.242 854.296 272.055 855.351 271.918C856.725 271.74 857.844 271.607 858.703 271.519C859.566 271.421 860.196 271.258 860.589 271.032C860.995 270.805 861.196 270.412 861.196 269.851V269.733C861.196 268.276 860.795 267.145 860 266.338C859.214 265.531 858.018 265.127 856.415 265.127C854.748 265.127 853.446 265.491 852.501 266.22C851.556 266.948 850.893 267.725 850.51 268.552L847.203 267.371C847.792 265.993 848.578 264.92 849.564 264.153C850.555 263.375 851.638 262.834 852.811 262.529C853.99 262.215 855.154 262.057 856.296 262.057C857.022 262.057 857.858 262.146 858.803 262.323C859.758 262.49 860.68 262.839 861.566 263.371C862.461 263.902 863.201 264.704 863.795 265.777C864.384 266.85 864.681 268.286 864.681 270.087V285.026H861.196V281.955H861.018C860.781 282.447 860.388 282.974 859.835 283.535C859.287 284.095 858.552 284.573 857.639 284.966C856.721 285.36 855.606 285.557 854.287 285.557ZM854.816 282.428C856.196 282.428 857.356 282.157 858.301 281.616C859.255 281.074 859.977 280.376 860.457 279.52C860.95 278.663 861.196 277.763 861.196 276.818V273.63C861.046 273.807 860.721 273.969 860.219 274.117C859.73 274.255 859.16 274.378 858.506 274.486C857.867 274.584 857.246 274.673 856.634 274.752C856.036 274.821 855.547 274.88 855.173 274.929C854.268 275.047 853.419 275.239 852.633 275.504C851.857 275.76 851.227 276.149 850.743 276.671C850.272 277.182 850.035 277.881 850.035 278.767C850.035 279.977 850.482 280.893 851.377 281.512C852.286 282.122 853.433 282.428 854.816 282.428ZM874.523 254.795V285.026H871.038V254.795H874.523Z" fill="white"/>
</g>
<defs>
<clipPath id="clip0_397_23">
<rect width="889.192" height="318.319" fill="white"/>
</clipPath>
</defs>
</svg>
